<?xml version="1.0" standalone="no"?>
<!DOCTYPE svg PUBLIC "-//W3C//DTD SVG 20010904//EN"
 "http://www.w3.org/TR/2001/REC-SVG-20010904/DTD/svg10.dtd">
<svg version="1.0" xmlns="http://www.w3.org/2000/svg"
 width="3400.000000pt" height="3400.000000pt" viewBox="0 0 3400.000000 3400.000000"
 preserveAspectRatio="xMidYMid meet">
<metadata>
Created by potrace 1.11, written by Peter Selinger 2001-2013
</metadata>
<g transform="translate(0.000000,3400.000000) scale(0.100000,-0.100000)"
fill="#000000" stroke="none">
<path d="M16565 31990 c-11 -4 -34 -5 -50 -3 -36 6 -85 -28 -85 -58 0 -16 -7
-19 -50 -19 -41 0 -52 -4 -65 -24 -18 -26 -20 -44 -12 -94 3 -19 1 -46 -5 -60
-5 -15 -9 -60 -9 -101 2 -84 -12 -137 -41 -152 -11 -6 -72 -12 -136 -15 -64
-2 -130 -7 -147 -12 -16 -5 -48 -7 -70 -6 -22 1 -79 4 -126 7 -94 6 -194 -10
-289 -46 -38 -14 -81 -21 -140 -22 -71 -1 -102 -5 -150 -20 -3 -1 -25 -7 -50
-14 -97 -27 -328 -105 -375 -126 -52 -23 -159 -33 -170 -16 -8 13 -78 23 -171
24 -106 1 -168 -8 -284 -37 -36 -10 -254 -81 -345 -114 -103 -36 -116 -38
-223 -29 -55 5 -74 2 -150 -27 -167 -63 -231 -79 -332 -81 -74 -1 -104 -6
-136 -23 -35 -18 -43 -19 -55 -7 -14 13 -25 12 -179 -20 -14 -2 -50 -10 -80
-16 -30 -6 -78 -17 -107 -25 -29 -9 -65 -17 -80 -20 -15 -3 -37 -8 -48 -11
-11 -4 -25 -8 -30 -9 -6 -1 -49 -11 -95 -23 -47 -11 -105 -21 -130 -22 -57 -3
-110 -23 -110 -43 0 -20 -40 -30 -85 -22 -23 5 -35 3 -35 -4 0 -29 -51 -52
-65 -30 -9 15 -35 -8 -35 -31 0 -17 -3 -17 -42 -3 -73 25 -93 26 -130 1 -19
-13 -43 -22 -54 -21 -10 2 -46 -5 -79 -16 -98 -31 -272 -73 -355 -85 -19 -3
-42 -8 -50 -10 -8 -3 -38 -7 -65 -10 -59 -6 -64 -7 -180 -34 -101 -24 -172
-49 -245 -86 -46 -23 -50 -28 -50 -60 0 -19 -3 -35 -7 -35 -5 0 -39 -7 -77
-15 -53 -11 -72 -12 -77 -3 -5 8 -15 6 -35 -8 -15 -10 -34 -23 -43 -29 -9 -5
-18 -12 -21 -15 -3 -3 -21 -13 -40 -22 -34 -16 -56 -15 -45 2 9 14 17 110 11
126 -4 11 -18 9 -78 -12 -40 -14 -80 -28 -88 -31 -8 -4 -17 -7 -20 -8 -3 -1
-18 -7 -35 -14 -16 -7 -46 -19 -66 -26 -19 -7 -55 -22 -80 -33 -24 -11 -69
-30 -99 -43 -71 -29 -82 -39 -41 -39 l32 0 -18 -32 c-10 -18 -22 -36 -27 -40
-13 -9 -71 16 -112 47 -47 36 -80 32 -120 -12 -30 -33 -37 -36 -54 -25 -12 7
-20 8 -21 2 -1 -5 -2 -14 -3 -19 -3 -29 -24 -31 -54 -7 -33 29 -44 32 -41 14
7 -58 -9 -72 -85 -69 -54 2 -72 -2 -96 -19 -16 -11 -53 -31 -83 -44 -85 -38
-358 -133 -407 -142 -25 -4 -48 -9 -52 -10 -5 -1 -14 -2 -22 -3 -7 0 -19 -21
-25 -45 -22 -90 -12 -169 49 -387 54 -193 57 -211 45 -286 -7 -37 -4 -48 24
-89 17 -26 31 -50 31 -53 1 -3 7 -49 14 -101 9 -63 12 -146 9 -245 -9 -283 -7
-396 7 -412 2 -2 3 -6 4 -10 11 -48 34 -84 66 -102 58 -32 68 -50 70 -116 2
-33 -1 -73 -5 -88 -10 -38 10 -73 49 -87 43 -15 75 -48 82 -87 6 -32 8 -33 51
-33 l44 0 -6 -32 c-4 -21 -1 -40 8 -53 15 -19 40 -23 165 -24 49 -1 52 -3 52
-26 l0 -24 36 21 c43 25 112 27 166 5 37 -16 95 -15 180 3 75 15 131 46 184
102 76 80 131 92 210 48 l34 -19 26 24 c29 27 67 41 133 49 24 3 67 17 97 32
42 21 61 38 95 90 51 79 104 132 191 190 91 61 182 162 223 249 32 68 66 171
69 208 1 22 23 36 46 30 10 -3 29 7 45 21 15 14 34 26 41 26 20 0 17 9 -10 45
l-25 32 22 11 c40 20 67 25 190 36 72 7 123 28 164 68 34 33 43 35 173 43 47
3 117 7 155 10 41 2 90 13 118 25 26 12 56 23 65 25 61 11 305 91 343 112 43
23 99 68 99 79 0 2 -13 -2 -30 -11 -40 -21 -109 -19 -169 5 -28 11 -56 18 -63
15 -7 -2 -26 -6 -43 -8 -16 -3 -52 -12 -80 -22 -27 -9 -75 -19 -105 -21 -30
-3 -77 -12 -105 -19 -27 -8 -66 -17 -85 -20 -19 -3 -46 -8 -60 -10 -59 -12
-168 -14 -198 -4 -21 7 -37 21 -43 37 -9 23 -7 30 16 49 14 13 34 23 43 24 9
0 26 2 37 5 11 2 91 5 177 7 126 3 159 7 172 20 21 21 20 40 -1 33 -10 -2 -45
-8 -78 -12 -33 -3 -69 -8 -80 -9 -133 -20 -196 -22 -263 -10 -24 4 -40 11 -35
15 4 4 49 20 98 34 192 57 253 80 337 127 48 27 105 52 125 55 61 9 75 15 123
54 90 75 159 101 325 124 22 3 51 8 65 11 14 2 49 10 77 16 59 12 76 30 119
123 22 48 30 57 62 65 53 14 116 22 216 25 74 3 96 8 149 35 34 17 73 46 87
63 l24 31 -54 -7 c-30 -4 -65 -14 -77 -22 -24 -15 -138 -20 -147 -5 -8 12 59
57 113 76 44 15 92 21 249 29 123 7 182 27 236 82 25 25 46 52 46 60 0 27 20
14 36 -23 l15 -38 21 28 c11 15 33 34 48 42 26 14 30 13 65 -15 25 -20 46 -28
61 -26 30 6 123 53 194 98 53 34 154 88 165 88 3 0 18 -6 33 -14 26 -14 27
-13 29 15 3 39 20 69 40 69 9 0 44 -11 77 -24 92 -37 131 -39 188 -10 47 24
48 24 124 8 l77 -15 27 26 27 26 29 -23 c16 -12 32 -27 37 -33 4 -6 10 -1 13
13 4 12 14 23 23 23 9 1 30 2 46 3 17 1 49 16 73 33 74 54 157 75 326 80 111
4 147 3 142 -6 -4 -6 2 -31 14 -56 12 -24 20 -57 18 -72 -3 -25 -8 -28 -68
-39 -36 -7 -99 -24 -140 -39 -41 -15 -102 -36 -135 -46 l-60 -18 103 2 c107 2
120 -4 82 -38 -19 -17 -29 -17 -104 -1 -16 4 -34 2 -42 -5 -12 -10 -5 -15 38
-31 29 -10 65 -18 80 -18 29 0 37 -13 16 -27 -7 -4 -29 -30 -47 -58 -19 -27
-37 -52 -40 -55 -4 -3 -16 -19 -28 -36 -51 -73 -209 -302 -218 -316 -24 -38
-134 -204 -142 -214 -9 -11 -16 -23 -63 -99 -17 -27 -49 -77 -70 -110 -22 -33
-49 -76 -60 -95 -11 -19 -58 -95 -105 -168 -47 -74 -85 -135 -85 -137 0 -2
-21 -37 -47 -77 -27 -41 -53 -83 -60 -93 -6 -11 -79 -128 -161 -260 -83 -132
-159 -258 -169 -280 -26 -55 -97 -166 -159 -249 -71 -95 -122 -199 -136 -274
l-12 -64 -60 -27 -61 -28 -49 -154 c-112 -354 -243 -639 -347 -754 -10 -11
-21 -36 -24 -55 -16 -91 -89 -204 -207 -319 -38 -38 -118 -188 -137 -259 -10
-37 -68 -164 -92 -202 -5 -8 -28 -55 -50 -105 -23 -49 -84 -178 -137 -285 -52
-107 -96 -197 -96 -200 -3 -13 -228 -455 -238 -467 -6 -7 -7 -13 -2 -13 5 0 5
-4 -1 -8 -5 -4 -29 -45 -53 -92 -51 -103 -151 -295 -214 -410 -60 -112 -93
-172 -163 -305 -32 -60 -66 -123 -75 -140 -10 -16 -46 -84 -80 -150 -35 -66
-74 -140 -88 -165 -14 -25 -62 -117 -108 -205 -46 -88 -103 -198 -127 -245
-133 -253 -517 -1015 -607 -1205 -54 -114 -123 -259 -193 -405 -22 -47 -41
-87 -42 -90 -2 -6 -16 -39 -90 -200 -107 -235 -126 -280 -212 -480 -93 -217
-271 -658 -325 -805 -22 -60 -45 -121 -51 -135 -5 -14 -11 -29 -12 -35 -2 -5
-22 -61 -45 -124 -23 -63 -43 -120 -45 -125 -1 -6 -5 -18 -8 -26 -21 -50 -107
-316 -104 -323 5 -15 82 50 99 84 30 62 35 79 53 184 13 73 19 94 45 152 18
39 50 84 85 120 l57 58 -7 -35 c-3 -19 -9 -44 -12 -55 -4 -18 -2 -17 20 5 42
43 56 95 50 190 -9 127 -6 151 19 184 143 194 287 442 288 498 1 7 7 2 15 -12
13 -22 21 -16 16 12 -2 14 21 113 29 121 4 4 4 -12 0 -38 -4 -25 -3 -45 2 -45
4 0 8 6 8 13 0 47 98 171 144 183 19 4 21 13 22 72 1 90 33 166 76 181 17 6
41 11 53 11 18 0 22 6 23 33 3 66 53 228 105 338 30 63 58 125 62 139 4 14 11
30 15 35 4 6 11 24 15 40 5 17 9 33 10 38 2 4 3 12 4 17 1 7 8 7 22 0 11 -7
26 -9 34 -7 7 3 55 70 108 149 137 207 187 301 288 542 63 150 120 263 187
366 44 68 165 220 170 215 5 -5 -57 -163 -82 -210 -9 -16 -16 -33 -16 -37 0
-3 -26 -62 -59 -130 -32 -68 -82 -172 -111 -233 -29 -60 -79 -166 -112 -235
-69 -144 -146 -306 -159 -335 -4 -11 -25 -56 -45 -100 -71 -158 -148 -380
-159 -460 l-7 -50 35 65 c19 36 43 79 53 97 92 157 130 218 214 348 82 125
190 319 190 338 0 3 5 18 12 34 13 32 10 24 42 132 24 83 54 153 69 159 4 2 7
9 7 16 0 6 15 27 32 46 31 33 78 97 78 105 0 2 23 40 50 84 28 44 50 82 50 84
0 2 23 44 52 93 53 93 263 503 287 564 8 19 20 49 27 65 7 17 20 48 29 70 9
22 20 48 25 57 6 10 10 25 10 33 0 28 124 104 199 122 l26 6 -20 -23 c-11 -13
-47 -43 -80 -67 -33 -25 -63 -52 -66 -61 -6 -17 16 -110 30 -124 3 -4 22 18
41 50 41 70 222 345 231 352 4 3 15 19 25 37 11 17 46 78 80 135 75 126 132
235 163 308 27 63 51 87 95 95 l31 6 0 72 c0 73 11 92 30 50 13 -30 25 -29 26
2 1 14 2 28 3 33 1 4 6 23 10 42 13 56 70 171 111 225 52 68 169 191 300 315
54 51 57 53 39 20 -11 -19 -21 -37 -25 -40 -6 -6 -99 -167 -99 -173 0 -3 13
-7 29 -10 21 -4 31 -13 33 -29 3 -20 6 -18 21 16 10 22 29 55 42 73 30 38 42
88 26 106 -8 11 -4 22 20 50 38 45 48 46 45 7 -3 -39 10 -60 19 -31 3 11 11
21 16 21 5 0 9 4 9 9 0 5 29 51 64 102 125 185 218 345 388 669 10 19 27 49
38 65 11 17 23 37 27 45 23 51 283 423 290 416 2 -1 -3 -24 -11 -49 -15 -51
-15 -52 15 -36 20 10 82 21 130 22 28 1 30 21 3 31 -20 8 -8 26 15 26 31 0
121 63 114 80 -10 27 -3 63 16 81 11 11 17 26 14 37 -7 28 25 139 52 182 13
20 65 72 116 115 51 43 109 94 128 112 34 32 35 34 11 29 -14 -2 -32 -7 -41
-11 -33 -13 -28 14 20 111 57 116 101 165 131 146 18 -11 20 -9 20 20 0 52 19
106 44 125 36 29 46 57 46 128 0 88 18 125 94 198 56 55 66 70 85 133 18 63
28 78 77 122 60 54 81 85 86 130 2 15 123 207 269 427 296 446 347 524 375
575 10 19 21 37 24 40 12 12 34 54 119 225 82 165 104 216 172 389 32 84 253
391 461 641 37 44 84 103 108 134 13 18 52 46 85 63 78 38 94 52 138 121 20
31 39 57 41 57 2 0 31 -7 63 -15 92 -23 184 -27 242 -9 47 14 68 30 39 31 -7
0 -55 15 -106 32 -83 29 -96 31 -130 20 -20 -6 -41 -15 -47 -19 -5 -4 -27 -18
-49 -30 l-39 -21 8 53 c4 29 8 59 8 65 0 7 12 27 26 44 34 41 101 58 211 54
47 -2 155 -6 240 -9 184 -7 244 4 246 44 1 14 2 30 3 35 1 6 26 8 63 5 88 -7
221 6 262 25 26 13 47 15 88 9 128 -18 342 7 426 50 15 7 74 16 131 20 87 5
111 10 147 31 24 14 51 37 60 51 9 14 24 24 33 23 9 -1 47 -1 84 0 59 1 68 3
65 19 -1 9 1 23 6 30 6 11 14 8 36 -13 27 -25 29 -26 38 -9 6 11 12 24 14 29
1 6 8 8 13 6 21 -8 176 -9 212 -1 21 5 56 11 78 14 23 4 52 9 65 11 14 3 36 7
50 10 34 6 311 65 330 70 21 5 201 46 225 51 149 29 178 38 157 47 -41 18 -22
24 71 23 134 -3 361 38 532 95 33 11 71 23 85 25 14 3 34 7 45 11 11 3 87 7
170 8 83 1 161 5 173 9 12 3 32 9 43 12 14 4 19 2 15 -5 -17 -27 15 -6 73 49
52 49 71 60 100 62 46 2 75 4 131 12 25 3 128 8 230 11 431 12 509 16 620 30
30 4 73 9 95 11 62 5 83 11 120 34 22 13 43 19 62 16 62 -12 173 -20 261 -21
74 0 96 3 105 16 7 9 33 19 58 23 25 4 57 9 70 11 13 2 44 6 69 9 25 4 56 8
70 10 25 5 65 11 138 22 20 3 62 9 92 14 30 5 71 11 90 14 19 3 46 8 60 10 37
7 140 25 180 31 19 3 60 10 90 15 30 5 78 12 105 15 28 4 61 8 75 11 24 4 109
14 245 30 71 8 94 10 200 19 44 3 96 8 115 10 19 2 63 5 97 6 34 1 60 5 58 8
-4 8 -1066 6 -2085 -3 -902 -9 -1205 -14 -1700 -31 -187 -7 -530 -22 -670 -30
-47 -3 -128 -7 -180 -10 -52 -3 -124 -7 -160 -10 -36 -3 -101 -7 -145 -10 -44
-3 -111 -7 -150 -10 -38 -3 -101 -7 -140 -10 -38 -3 -95 -7 -125 -9 -30 -3
-91 -7 -135 -11 -44 -3 -102 -8 -130 -12 -27 -3 -180 -7 -340 -9 -159 -1 -317
-5 -350 -8 -157 -15 -308 -25 -614 -42 -95 -5 -133 -11 -159 -26 -59 -33 -138
-48 -224 -43 -61 4 -94 1 -141 -14 -126 -39 -364 -64 -437 -47 -14 4 -45 9
-70 12 -73 9 -113 29 -262 130 -78 53 -149 99 -157 102 -9 3 -36 18 -61 32
-92 54 -202 93 -270 95 -36 2 -74 0 -85 -5z m-600 -785 c14 -13 25 -29 25 -34
0 -16 -75 -32 -102 -22 -12 4 -49 7 -82 6 -65 -3 -64 1 14 44 68 38 112 40
145 6z m-250 -71 c-72 -56 -213 -101 -380 -119 -27 -4 -61 -8 -75 -11 -14 -2
-45 -7 -70 -9 -83 -9 -315 -36 -340 -40 -14 -2 -45 -7 -70 -10 -91 -12 -230
-46 -230 -56 0 -4 10 -5 23 -2 20 5 19 3 -8 -21 -52 -47 -95 -53 -200 -29 -61
13 -95 14 -122 0 -24 -13 -28 -21 -28 -59 0 -41 -2 -43 -29 -41 -33 2 -76 38
-76 64 0 25 -31 20 -77 -13 -117 -85 -113 -83 -183 -83 l-66 0 27 -22 c19 -16
36 -21 61 -19 20 2 41 0 47 -4 19 -11 -91 -31 -201 -36 -126 -5 -197 -24 -268
-72 -75 -51 -75 -67 2 -36 34 15 72 28 83 31 24 5 106 5 111 0 3 -3 -151 -67
-236 -98 -102 -37 -289 -68 -505 -84 -38 -3 -97 -8 -130 -10 -33 -3 -91 -8
-130 -10 -38 -2 -83 -7 -100 -10 -21 -4 -26 -3 -15 4 8 5 35 12 60 15 25 4 56
9 70 11 58 12 76 15 115 21 22 3 56 7 75 9 37 4 44 6 125 25 62 16 204 82 187
88 -7 2 -41 -1 -75 -7 -34 -6 -80 -13 -102 -16 -43 -6 -151 -23 -200 -31 -40
-7 -116 -23 -139 -31 -15 -4 -18 -2 -12 12 17 44 -41 53 -64 10 -12 -22 -58
-42 -86 -37 -6 1 -17 -5 -24 -13 -19 -23 -59 -18 -97 11 -46 35 -100 30 -167
-17 l-48 -34 39 -5 c38 -5 37 -5 -37 -27 -149 -44 -320 -81 -320 -68 0 6 16
28 36 48 25 25 30 34 17 32 -10 -3 -43 -7 -73 -9 -30 -3 -68 -7 -85 -11 -84
-17 -225 -76 -225 -94 0 -5 12 -19 26 -30 21 -17 30 -18 47 -10 19 11 19 10
-2 -20 -33 -46 -68 -59 -172 -66 -101 -7 -115 -9 -196 -25 -46 -10 -53 -14
-53 -36 0 -33 36 -32 72 3 24 23 32 25 55 17 14 -5 28 -14 30 -21 11 -32 -203
-148 -309 -168 -11 -2 -27 -6 -36 -9 -9 -3 -39 -7 -67 -10 -27 -3 -75 -8 -105
-11 -48 -5 -147 -21 -245 -40 -16 -3 -39 -9 -50 -12 -11 -4 -24 -8 -30 -9 -5
-1 -63 -18 -127 -38 -65 -19 -128 -37 -140 -40 -13 -2 -79 -20 -148 -39 -69
-20 -152 -41 -185 -47 -73 -14 -223 -24 -213 -15 44 45 230 125 290 125 36 0
13 11 -34 16 -23 3 -47 9 -51 14 -9 8 91 60 117 60 9 0 16 4 16 9 0 5 -16 5
-37 1 -21 -5 -76 -16 -123 -25 -47 -9 -121 -26 -165 -37 -44 -11 -90 -22 -101
-24 -96 -18 -321 -99 -344 -124 -27 -29 -190 -91 -190 -72 0 16 77 114 111
142 51 40 220 124 284 140 28 6 57 14 65 16 16 4 185 43 211 49 68 15 180 49
184 56 3 4 -5 6 -17 3 -13 -2 -41 -7 -63 -10 -76 -11 -479 -85 -487 -90 -4 -3
-8 -1 -8 4 0 11 73 63 125 89 56 28 133 52 185 58 25 3 68 7 96 10 42 5 178
35 219 49 42 14 84 33 150 67 42 21 79 39 81 39 3 0 0 -9 -6 -19 -7 -15 -6
-23 4 -34 16 -16 44 -15 91 2 28 11 29 10 10 -5 -71 -56 -72 -56 -25 -32 24
13 71 49 103 81 55 53 81 73 60 45 -5 -7 -10 -26 -12 -41 -2 -25 0 -27 16 -19
21 12 124 34 171 37 75 6 129 18 167 38 22 12 48 22 58 23 10 1 28 11 41 23
18 17 33 22 62 19 29 -2 44 2 60 19 15 15 29 20 44 16 16 -4 28 1 43 20 27 31
171 79 372 123 22 5 45 8 115 19 25 4 52 9 60 10 8 2 38 6 65 9 28 4 61 9 75
11 14 2 43 6 65 9 22 4 51 8 65 11 14 2 48 7 75 10 28 3 64 8 80 10 17 2 53 7
80 10 44 5 102 14 189 31 13 2 69 20 123 40 356 128 422 147 458 133 43 -17
83 -9 134 26 29 19 58 32 65 29 37 -14 86 -9 144 16 63 27 109 30 195 15 19
-3 27 0 27 10 0 18 -4 17 175 20 77 2 147 3 155 4 9 0 22 12 30 25 l15 25 45
-20 c73 -33 168 -15 277 54 68 43 133 55 236 43 242 -26 209 -26 417 -1 94 11
200 32 360 70 53 13 161 34 195 39 23 4 50 8 61 10 11 2 54 7 95 11 41 4 75 7
76 8 1 1 37 3 80 4 73 3 77 2 58 -13z m-3105 -688 c0 -2 2 -10 5 -18 4 -9 -3
-14 -20 -16 -24 -2 -34 16 -18 31 7 8 33 10 33 3z m-1522 -628 c-55 -72 -147
-112 -328 -144 -14 -3 -63 -14 -108 -25 -46 -11 -88 -19 -93 -17 -6 2 -1 13
11 25 11 12 20 25 20 29 0 11 61 64 95 82 21 11 60 16 130 18 127 2 179 10
235 39 61 31 67 30 38 -7z m-878 -189 c-5 -16 -7 -36 -4 -43 7 -18 -31 -48
-65 -51 -21 -2 -37 5 -55 24 l-26 27 43 11 c23 6 58 23 77 36 19 14 36 26 37
26 1 1 -2 -13 -7 -30z m96 -10 c4 -7 21 -9 41 -6 31 5 33 4 21 -11 -19 -25
-41 -41 -55 -42 -11 0 -43 48 -43 65 0 10 29 5 36 -6z m-246 -59 c0 -5 -11
-17 -25 -26 -23 -15 -27 -15 -50 0 -38 25 -30 36 25 36 28 0 50 -4 50 -10z
m3580 -4442 c-1 -2 -9 -28 -20 -58 l-19 -55 -1 38 c0 41 14 77 30 77 6 0 10
-1 10 -2z m-262 -460 c-2 -15 -11 -24 -25 -26 -27 -4 -30 15 -5 34 25 19 34
17 30 -8z"/>
<path d="M14490 30870 c-8 -5 -10 -10 -5 -10 6 0 17 5 25 10 8 5 11 10 5 10
-5 0 -17 -5 -25 -10z"/>
<path d="M14455 30850 c-3 -5 -1 -10 4 -10 6 0 11 5 11 10 0 6 -2 10 -4 10 -3
0 -8 -4 -11 -10z"/>
<path d="M11115 30159 c-64 -20 -121 -32 -255 -54 -99 -16 -115 -19 -155 -34
-35 -13 -128 -62 -135 -71 -3 -3 -18 -16 -35 -29 l-30 -23 35 6 c213 42 423
107 552 171 125 62 129 68 23 34z"/>
<path d="M10095 30015 c-16 -8 -23 -14 -14 -15 8 0 24 7 35 15 23 18 18 18
-21 0z"/>
<path d="M9993 29982 c-28 -10 -55 -20 -59 -24 -9 -10 109 23 121 34 13 12 -2
9 -62 -10z"/>
<path d="M10398 29920 c-54 -15 -98 -26 -98 -24 0 2 -18 -3 -41 -11 -22 -8
-43 -14 -47 -13 -13 3 -132 -26 -132 -32 0 -5 28 -4 140 4 82 6 99 10 172 38
46 18 131 70 108 67 -3 -1 -49 -14 -102 -29z"/>
<path d="M10015 29830 c-16 -7 -17 -9 -3 -9 9 -1 20 4 23 9 7 11 7 11 -20 0z"/>
<path d="M9973 29783 c-13 -3 -23 -11 -23 -18 0 -22 20 -28 39 -11 16 14 20
14 55 -4 44 -24 60 -19 44 15 -9 19 -17 23 -52 22 -22 0 -51 -2 -63 -4z"/>
<path d="M25370 31959 c0 -5 5 -7 10 -4 6 3 10 8 10 11 0 2 -4 4 -10 4 -5 0
-10 -5 -10 -11z"/>
<path d="M20670 31300 l-25 -8 25 -1 c14 0 32 4 40 9 13 9 13 10 0 9 -8 -1
-26 -5 -40 -9z"/>
<path d="M10450 30340 c-53 -17 -80 -36 -68 -48 17 -17 25 -15 31 9 5 18 10
20 38 14 31 -7 55 8 43 27 -6 9 -10 9 -44 -2z"/>
<path d="M10340 30295 c-7 -9 -11 -17 -9 -20 3 -2 10 5 17 15 14 24 10 26 -8
5z"/>
<path d="M14943 30193 c-17 -24 -27 -27 -79 -29 -32 -1 -78 -8 -102 -17 -41
-16 -131 -35 -205 -43 -20 -3 -56 -14 -80 -24 -36 -17 -38 -19 -12 -15 17 2
53 7 80 10 28 3 64 7 80 10 63 10 201 20 365 25 36 1 56 4 45 7 -26 6 -35 15
-40 41 -2 12 -10 31 -18 42 -13 19 -14 19 -34 -7z"/>
<path d="M14255 30048 c-22 -4 -56 -10 -75 -13 -79 -14 -282 -68 -380 -101
-58 -20 -112 -38 -120 -40 -56 -14 -229 -69 -226 -72 8 -7 441 90 506 114 19
7 53 15 75 18 91 12 305 80 305 97 0 10 -23 9 -85 -3z"/>
<path d="M13358 29854 c-4 -3 -21 -8 -40 -11 -42 -6 -55 -19 -32 -30 38 -19
94 1 94 33 0 14 -12 19 -22 8z"/>
<path d="M13673 29812 c-51 -52 -154 -95 -253 -107 -30 -4 -143 -8 -250 -10
-142 -2 -207 -7 -240 -18 -78 -27 -119 -43 -126 -50 -4 -4 -15 -7 -24 -7 -27
0 -100 -58 -100 -79 0 -19 2 -18 43 4 56 32 141 53 197 50 25 -2 92 -4 150 -5
102 -2 109 0 270 53 246 81 337 124 361 168 13 25 -4 25 -28 1z"/>
<path d="M14287 25953 c-8 -16 -22 -41 -31 -58 -9 -16 -16 -41 -16 -55 0 -15
-4 -30 -10 -36 -6 -6 -6 -23 1 -47 13 -49 18 -47 12 4 -6 44 -6 44 56 21 11
-4 11 -1 1 17 -17 33 -22 71 -11 85 10 12 25 96 17 96 -2 0 -11 -12 -19 -27z"/>
<path d="M14140 25691 c0 -29 -65 -152 -105 -199 -38 -43 -34 -52 13 -28 25
13 61 48 122 120 24 28 24 28 3 17 -20 -10 -23 -9 -28 12 -3 12 -1 35 4 51 14
34 14 46 1 46 -5 0 -10 -8 -10 -19z"/>
<path d="M14223 25655 c-14 -21 -17 -32 -9 -29 14 6 42 51 35 58 -2 3 -14 -11
-26 -29z"/>
<path d="M13964 25293 c-12 -2 -30 -14 -41 -26 -23 -25 -53 -98 -53 -127 0
-19 1 -19 21 -2 39 32 84 77 112 111 22 26 25 36 15 42 -13 9 -18 9 -54 2z"/>
<path d="M13145 24399 c-4 -6 -5 -12 -2 -15 2 -3 7 2 10 11 7 17 1 20 -8 4z"/>
<path d="M13086 24285 c-9 -26 -7 -32 5 -12 6 10 9 21 6 23 -2 3 -7 -2 -11
-11z"/>
<path d="M13020 24159 c0 -5 5 -7 10 -4 6 3 10 8 10 11 0 2 -4 4 -10 4 -5 0
-10 -5 -10 -11z"/>
<path d="M12158 23075 c-31 -17 -36 -32 -37 -96 0 -25 -3 -61 -6 -80 -8 -43
-8 -44 58 84 52 100 55 107 34 107 -12 -1 -34 -7 -49 -15z"/>
<path d="M11973 22733 c-22 -64 -81 -186 -142 -293 -39 -69 -71 -129 -71 -134
0 -12 29 26 30 38 0 5 25 43 57 84 72 97 120 192 131 265 9 57 7 73 -5 40z"/>
<path d="M10850 21345 c-13 -14 -19 -25 -13 -25 12 0 48 38 41 45 -2 3 -15 -6
-28 -20z"/>
<path d="M10240 20143 c0 -7 -16 -27 -35 -46 -47 -46 -65 -84 -58 -121 8 -38
32 -78 44 -70 31 18 76 207 57 236 -5 10 -8 10 -8 1z"/>
<path d="M21375 17822 c-11 -2 -33 -16 -50 -30 -39 -35 -68 -51 -124 -68 -98
-30 -128 -31 -941 -19 -228 3 -750 8 -1160 11 -1464 10 -1631 13 -1922 29
-186 10 -287 16 -358 20 -41 2 -122 7 -180 10 -58 3 -141 8 -185 10 -77 4
-271 12 -477 19 -54 2 -98 1 -98 -3 0 -10 111 -49 173 -60 107 -19 323 -29
447 -20 19 1 58 -1 87 -4 29 -4 139 -9 245 -12 363 -10 538 -21 554 -38 3 -3
-34 -4 -82 -2 -107 4 -369 17 -439 20 -150 8 -175 8 -182 2 -3 -4 2 -7 13 -8
10 -1 30 -2 44 -4 14 -1 61 -6 105 -9 44 -4 94 -9 110 -11 85 -11 256 -18 390
-16 278 5 457 1 620 -14 22 -2 92 -6 155 -10 63 -4 131 -8 150 -10 19 -2 85
-6 145 -10 61 -4 133 -8 160 -10 123 -8 390 -17 615 -20 135 -2 265 -6 290 -8
93 -9 156 -19 195 -29 22 -6 69 -10 105 -9 251 9 375 -5 415 -49 14 -15 -4
-16 -268 -14 -268 2 -743 12 -947 19 -263 10 -471 20 -600 30 -30 2 -102 7
-160 10 -194 11 -243 16 -335 31 -40 6 -56 10 -97 19 -83 20 -178 17 -298 -10
-46 -10 -155 -16 -182 -9 -37 8 -25 26 13 20 33 -5 49 9 19 17 -30 8 -169 -3
-230 -18 -3 -1 -26 -5 -52 -9 -50 -9 -68 -26 -20 -20 35 5 94 -5 88 -14 -2 -4
-22 -7 -43 -6 -21 1 -110 5 -198 9 -182 7 -278 13 -350 20 -173 17 -266 22
-535 30 -107 3 -233 8 -280 10 -182 9 -328 16 -385 20 -33 2 -112 6 -175 9
-63 4 -146 8 -185 11 -115 7 -437 26 -705 40 -534 29 -1339 40 -1360 19 -7 -7
66 -10 242 -9 258 1 309 -2 308 -20 0 -10 -4 -12 -41 -14 -24 -1 -16 -20 9
-19 9 0 53 -3 97 -7 98 -8 147 -12 300 -20 66 -3 136 -8 155 -11 26 -3 31 -1
20 6 -26 18 -86 30 -172 36 -45 3 -94 7 -108 10 -14 2 -46 7 -73 10 -26 4 -50
11 -54 17 -3 5 -2 8 3 4 10 -6 71 -12 299 -32 44 -4 96 -8 115 -10 19 -2 79
-6 134 -10 54 -4 115 -9 135 -11 20 -1 74 -5 121 -8 47 -4 112 -8 145 -11 33
-2 101 -7 150 -10 50 -3 113 -8 140 -10 28 -2 95 -7 150 -10 55 -3 129 -8 165
-10 36 -3 108 -7 160 -10 52 -3 127 -7 165 -10 80 -6 196 -13 340 -20 55 -3
136 -7 180 -10 44 -3 123 -7 175 -10 142 -7 389 -22 520 -30 86 -6 230 -14
340 -20 76 -3 174 -10 335 -21 50 -3 117 -8 150 -9 177 -10 264 -16 300 -20
37 -4 95 -8 275 -20 36 -2 99 -6 140 -10 41 -3 93 -7 116 -9 22 -2 47 -7 54
-11 7 -4 43 -9 79 -10 94 -4 234 -15 262 -20 13 -3 44 -8 69 -11 92 -12 76
-22 -85 -50 -41 -8 -478 -13 -489 -7 -5 3 -32 7 -60 9 -28 2 -76 5 -106 8
-209 20 -412 31 -780 41 -118 3 -250 8 -292 10 -42 2 -135 7 -205 10 -70 3
-182 7 -248 10 -66 3 -165 7 -220 10 -55 2 -152 7 -215 10 -63 3 -151 8 -195
10 -266 14 -296 16 -510 30 -38 2 -110 7 -160 10 -49 3 -121 8 -160 11 -38 2
-95 7 -125 9 -92 6 -213 16 -260 20 -25 3 -81 7 -125 10 -44 3 -93 7 -110 9
-16 3 -66 7 -110 11 -44 3 -96 8 -115 11 -39 6 -98 12 -177 19 -147 12 -219
22 -243 35 -16 9 -111 6 -180 -5 -19 -3 -39 -6 -45 -7 -14 -1 -191 12 -240 18
-119 14 -413 26 -720 29 -143 1 -291 5 -330 9 -38 4 -169 9 -290 12 -217 4
-242 5 -340 20 -84 12 -99 11 -128 -3 -16 -8 -27 -16 -25 -18 1 -2 59 -6 128
-10 124 -6 261 -14 353 -20 93 -6 227 -28 227 -36 0 -9 -248 -4 -310 6 -48 8
-269 8 -300 0 -14 -4 -33 -7 -43 -7 -10 1 -47 -10 -83 -24 -63 -23 -71 -24
-363 -24 -268 0 -306 -2 -377 -21 -43 -11 -92 -22 -109 -24 -16 -2 -55 -6 -85
-10 -30 -3 -66 -8 -80 -10 -14 -2 -47 -7 -75 -10 -27 -3 -66 -7 -85 -10 -19
-3 -57 -7 -85 -10 -27 -3 -59 -7 -70 -9 -11 -2 -51 -7 -88 -11 -37 -3 -77 -8
-89 -10 -49 -10 -168 -19 -238 -19 -59 1 -78 -3 -87 -16 -14 -19 -134 -52
-271 -75 -62 -10 -98 -16 -202 -36 -148 -27 -143 -26 -228 -49 -42 -11 -92
-28 -110 -36 -23 -11 -48 -14 -85 -9 -29 3 -81 8 -116 11 -36 3 -68 7 -72 10
-4 2 -10 0 -13 -4 -5 -9 9 -12 201 -33 125 -14 142 -16 238 -23 44 -4 98 -9
120 -11 35 -4 95 -8 295 -21 332 -20 672 -33 1265 -49 733 -19 1205 -40 1215
-53 7 -9 20 -11 210 -17 91 -3 212 -7 270 -10 58 -2 177 -7 265 -10 88 -3 205
-8 260 -10 55 -3 161 -7 235 -10 74 -2 194 -6 265 -9 72 -3 189 -8 260 -11
143 -6 233 -11 400 -20 61 -3 155 -7 210 -10 89 -3 161 -6 430 -20 39 -2 126
-7 195 -10 69 -3 163 -8 210 -10 47 -3 144 -7 215 -10 72 -3 164 -8 206 -10
88 -5 235 -13 394 -20 61 -3 151 -7 200 -10 50 -2 149 -7 220 -10 72 -4 157
-8 190 -10 203 -10 396 -19 433 -19 23 0 42 -4 42 -9 0 -5 -34 -7 -76 -5 -41
3 -77 1 -80 -4 -3 -5 -2 -7 3 -6 7 2 49 -1 233 -18 173 -15 730 -25 730 -13 0
4 -19 10 -42 12 -24 2 25 2 107 0 83 -3 206 -6 275 -8 69 -2 163 -4 209 -4 81
-1 107 -10 42 -15 -51 -4 -44 -12 12 -15 54 -3 75 -4 217 -15 47 -3 123 -8
170 -11 47 -3 110 -7 140 -10 30 -2 105 -7 165 -11 61 -3 135 -8 165 -9 173
-11 480 -16 1195 -19 440 -3 829 -7 865 -10 58 -4 371 -18 410 -18 8 0 38 -6
65 -14 63 -17 91 -21 190 -29 44 -4 84 -9 89 -12 8 -6 128 -9 716 -18 179 -3
449 -7 600 -10 151 -3 409 -7 573 -10 164 -3 302 -7 306 -9 11 -7 85 -17 168
-21 43 -2 89 -7 103 -10 32 -6 101 -13 215 -20 50 -3 120 -10 157 -15 88 -13
114 -8 338 54 l44 12 2 90 c1 106 19 189 83 389 69 212 81 274 76 380 -4 101
-5 105 -35 195 -24 70 -48 109 -95 152 -40 37 -74 47 -175 52 -95 5 -101 6
-221 39 -80 23 -98 24 -260 19 -240 -7 -655 -7 -829 1 -177 8 -326 14 -530 22
-160 6 -245 10 -485 20 -77 3 -198 8 -270 10 -182 7 -555 21 -750 30 -49 2
-164 7 -254 10 -90 3 -167 7 -170 9 -3 1 -15 1 -26 -2z m-4288 -1138 c-3 -3
-12 -4 -19 -1 -8 3 -5 6 6 6 11 1 17 -2 13 -5z m2288 -94 c3 -6 -1 -7 -9 -4
-18 7 -21 14 -7 14 6 0 13 -4 16 -10z m70 -8 c-3 -3 -11 0 -18 7 -9 10 -8 11
6 5 10 -3 15 -9 12 -12z"/>
<path d="M15850 17708 c0 -4 28 -8 63 -9 34 0 78 -2 97 -4 66 -6 332 -7 337
-1 4 3 -25 6 -63 7 -38 0 -80 2 -94 5 -52 8 -340 10 -340 2z"/>
<path d="M17880 16619 c6 -11 17 -15 30 -12 29 8 25 20 -9 25 -26 4 -28 2 -21
-13z"/>
<path d="M18203 16614 c3 -3 26 -6 52 -6 26 0 49 3 53 6 3 3 -21 6 -53 6 -32
0 -56 -3 -52 -6z"/>
<path d="M22707 15294 c-2 -2 -95 -6 -467 -19 -103 -4 -189 -10 -280 -20 -25
-2 -70 -7 -100 -10 -145 -15 -379 -57 -580 -106 -69 -17 -132 -32 -140 -34
-21 -5 -237 -63 -280 -75 -19 -5 -84 -24 -145 -41 -60 -17 -117 -33 -125 -35
-8 -2 -49 -13 -90 -24 -41 -11 -82 -23 -90 -25 -8 -2 -52 -15 -97 -28 -46 -14
-83 -23 -83 -21 0 3 -13 -2 -30 -11 -16 -8 -33 -15 -37 -15 -19 0 -120 -33
-141 -46 -13 -9 -42 -22 -65 -30 -38 -13 -43 -13 -54 2 -7 9 -10 21 -7 25 10
16 -20 9 -114 -26 -94 -36 -117 -41 -108 -27 21 34 22 141 2 179 -29 58 -175
174 -236 190 -45 11 -120 66 -139 101 -8 15 -21 22 -40 22 -15 0 -50 12 -77
26 -62 33 -134 43 -134 19 0 -9 14 -29 31 -45 38 -34 35 -65 -13 -114 -17 -17
-28 -24 -25 -15 8 25 -28 94 -64 122 -40 30 -100 56 -146 63 -33 5 -34 4 -64
-60 -35 -74 -39 -129 -14 -178 30 -58 46 -133 49 -228 2 -60 -77 -209 -139
-262 -34 -30 -89 -52 -137 -57 -4 -1 -7 -31 -7 -67 l1 -66 -53 -56 c-96 -99
-103 -107 -156 -167 -75 -86 -155 -193 -233 -309 -67 -100 -170 -270 -170
-280 0 -14 -165 -263 -233 -354 -84 -110 -137 -170 -291 -324 -56 -57 -122
-128 -148 -158 -41 -48 -186 -228 -206 -255 -4 -5 -31 -40 -60 -77 -28 -37
-52 -72 -52 -77 0 -5 -4 -11 -8 -13 -4 -1 -23 -25 -42 -53 -19 -27 -39 -54
-43 -60 -4 -5 -42 -59 -84 -120 -42 -60 -82 -115 -87 -121 -6 -6 -22 -26 -36
-44 -106 -141 -353 -375 -504 -479 -25 -18 -46 -36 -46 -41 0 -17 -128 -234
-210 -354 -232 -343 -478 -554 -780 -667 -47 -17 -179 -78 -295 -134 -241
-118 -449 -218 -550 -265 -38 -18 -117 -55 -174 -82 -93 -44 -219 -102 -366
-168 -27 -13 -84 -38 -125 -57 -41 -19 -93 -42 -115 -52 -22 -10 -60 -27 -85
-39 -25 -11 -112 -50 -195 -87 -191 -85 -771 -372 -935 -463 -200 -110 -216
-119 -395 -223 -138 -79 -256 -136 -307 -148 -13 -3 -38 -12 -143 -53 -412
-162 -771 -355 -1156 -618 -69 -48 -119 -73 -184 -95 -156 -50 -520 -190 -583
-225 -9 -5 -66 -33 -127 -63 -60 -30 -145 -73 -187 -96 -43 -23 -79 -40 -80
-39 -2 2 -14 -5 -28 -15 -13 -9 -19 -17 -13 -17 7 0 15 4 18 10 14 23 25 7 25
-40 0 -27 3 -50 8 -50 9 0 175 59 252 90 71 28 253 124 293 154 134 102 493
228 684 240 180 11 420 120 618 280 39 31 90 70 115 86 25 16 50 34 57 40 7 5
15 10 18 10 3 0 28 11 57 25 29 14 80 30 115 36 48 8 80 23 131 57 130 87 219
118 462 157 83 14 176 41 300 89 8 3 24 -1 34 -9 20 -15 20 -15 0 -30 -17 -13
-17 -14 -2 -15 9 0 21 6 25 14 4 8 49 31 98 51 125 52 172 76 266 141 78 52
96 60 288 114 227 64 528 162 721 235 187 70 325 121 420 153 47 16 114 39
150 51 36 13 70 24 75 25 6 2 30 9 55 16 25 7 50 15 55 16 9 2 38 11 166 49
23 7 23 6 -3 -19 -41 -40 -40 -62 5 -119 48 -61 42 -86 -36 -165 -36 -37 -78
-83 -94 -102 -15 -19 -30 -37 -34 -40 -3 -3 -23 -27 -45 -55 -74 -94 -177
-203 -255 -271 -28 -24 -36 -38 -37 -68 -3 -82 -44 -187 -90 -233 -16 -15 -54
-50 -86 -77 -70 -59 -98 -117 -95 -191 3 -44 1 -50 -17 -50 -25 0 -46 -14 -39
-25 7 -11 -8 -42 -30 -64 -9 -8 -48 -25 -87 -37 -39 -11 -95 -32 -124 -45
l-51 -23 -41 -119 c-54 -158 -120 -299 -205 -437 -47 -76 -294 -442 -439 -647
-158 -226 -353 -521 -420 -637 -82 -140 -183 -363 -225 -496 -6 -17 -18 -31
-29 -33 -21 -4 -104 -80 -104 -96 0 -7 -27 -55 -87 -151 -7 -11 -29 -47 -49
-80 -21 -33 -60 -96 -88 -140 -28 -45 -56 -90 -63 -100 -14 -23 -114 -181
-215 -340 -81 -128 -183 -334 -226 -455 -44 -127 -94 -336 -108 -455 -4 -27
-8 -52 -11 -55 -3 -3 -30 -5 -61 -5 l-56 0 -3 -50 c-8 -116 -50 -213 -170
-397 -46 -70 -83 -131 -83 -134 0 -3 -8 -18 -19 -32 -71 -101 -160 -302 -187
-423 -11 -52 -11 -165 1 -211 12 -45 61 -155 83 -187 8 -11 21 -9 73 12 75 30
150 38 217 25 80 -16 204 -82 250 -132 l42 -45 -1 37 c-2 80 26 232 57 308 26
65 119 244 165 321 102 168 144 233 151 233 5 0 8 4 8 10 0 5 28 53 63 107 72
112 112 196 142 302 l20 75 78 -1 c42 0 77 1 78 1 0 1 3 21 6 46 9 71 40 143
93 215 27 36 54 82 60 101 15 46 10 111 -12 156 -23 47 -23 50 5 48 12 -1 38
-2 58 -1 33 1 36 4 37 32 1 48 13 89 38 137 24 46 37 59 117 125 53 44 99 128
101 186 2 33 12 51 60 106 32 36 67 76 77 89 28 36 103 167 119 206 45 119
102 240 113 240 4 0 7 7 7 15 0 8 4 15 9 15 5 0 12 9 16 20 3 10 51 65 105
122 55 57 100 108 101 113 1 17 7 59 12 87 7 35 40 110 58 128 8 9 24 29 36
46 l21 31 -31 -3 c-46 -3 -84 -20 -99 -44 -7 -11 -22 -20 -33 -20 -22 0 -62
24 -82 47 -23 29 -109 16 -168 -25 -37 -25 -92 -108 -94 -140 -2 -37 -92 -183
-138 -225 -20 -17 -21 -17 -34 30 -15 55 -18 268 -5 433 9 106 13 191 15 266
l1 42 70 -3 c79 -2 91 4 110 55 43 114 135 271 225 385 172 218 505 679 505
699 0 3 12 31 26 62 26 56 52 136 61 183 7 41 18 53 70 75 118 51 160 118 178
286 l5 45 -35 -70 c-19 -38 -34 -75 -35 -81 0 -19 -54 -72 -95 -92 -61 -31
-81 -34 -94 -18 -51 61 119 222 290 277 98 31 116 40 177 87 77 61 106 133
137 346 9 62 15 152 9 139 -6 -15 -84 -18 -84 -4 0 5 7 14 16 22 26 21 274
357 349 472 92 142 261 368 325 437 49 52 53 54 66 35 17 -23 18 -64 2 -102
-6 -15 -12 -31 -12 -35 -1 -3 -4 -10 -8 -14 -5 -4 -8 -12 -8 -18 0 -18 220
207 239 244 10 19 17 46 16 60 -5 73 -38 113 -49 58 -14 -68 -56 -110 -136
-133 -23 -7 -23 -5 8 22 29 27 32 35 32 91 0 62 0 62 29 62 16 0 73 11 127 25
152 39 184 33 184 -32 0 -59 -47 -125 -111 -158 -68 -36 -129 -144 -129 -229
0 -29 9 -22 156 124 160 160 191 203 213 301 6 24 11 67 11 96 l0 51 29 -14
c63 -31 157 -35 226 -8 13 5 3 -13 -30 -55 -48 -60 -319 -418 -360 -475 -11
-16 -24 -33 -30 -40 -14 -16 -47 -63 -142 -201 -46 -66 -86 -124 -91 -130 -13
-15 -157 -257 -171 -285 l-12 -25 18 25 c141 195 277 332 332 336 14 2 26 3
26 4 0 1 9 3 20 5 47 9 59 67 20 109 -26 28 -55 35 -55 12 0 -8 -5 -18 -10
-21 -15 -10 -1 46 17 67 15 17 90 31 173 32 l44 1 1 90 c0 73 3 90 15 91 8 1
35 2 60 3 l45 1 2 48 c5 168 36 233 119 248 37 7 39 10 20 29 -40 41 -9 74
112 120 41 15 86 38 100 50 27 23 27 24 12 67 -16 43 -16 43 8 45 40 2 73 25
92 63 24 46 41 61 68 55 51 -10 53 -18 12 -62 -47 -49 -60 -79 -60 -141 l-1
-47 -59 -29 c-73 -36 -81 -44 -110 -125 -28 -79 -87 -193 -147 -284 -50 -75
-200 -270 -247 -321 -41 -43 -132 -154 -187 -226 -35 -47 -67 -86 -71 -88 -5
-2 -8 -10 -8 -17 0 -7 -3 -15 -7 -17 -21 -9 -152 -249 -136 -248 7 1 107 137
238 325 28 39 59 83 70 97 11 14 28 37 37 49 9 13 90 126 180 250 90 124 249
346 353 492 148 207 195 266 212 266 35 1 92 -38 112 -77 l18 -35 17 29 c25
42 72 71 183 114 170 64 194 84 195 158 0 49 -9 65 -33 59 -11 -3 -19 -3 -19
-1 0 11 62 65 119 104 69 46 187 142 211 171 8 10 34 27 58 37 73 32 169 16
319 -54 75 -36 88 -40 78 -25 -3 6 0 24 8 42 9 24 29 40 72 63 57 29 60 33 58
66 -1 19 -6 36 -12 38 -6 2 -9 8 -5 13 3 5 -5 9 -17 9 -36 0 -86 -38 -103 -78
-34 -77 -42 -87 -67 -90 -20 -2 -99 31 -99 42 0 1 13 3 30 4 76 6 105 37 123
129 l11 59 65 0 c72 0 144 28 231 90 61 44 183 104 245 121 27 7 81 16 118 19
l68 7 -6 -34 c-11 -68 -26 -88 -91 -124 -59 -33 -77 -56 -55 -69 4 -3 11 -2
15 1 4 4 12 8 19 9 7 1 44 11 82 22 69 20 174 38 164 28 -17 -17 -253 -98
-354 -121 -66 -15 -147 -40 -181 -57 -162 -78 -134 -136 45 -92 36 9 70 20 76
25 5 5 15 9 22 9 6 0 72 28 145 61 207 95 240 107 350 118 4 1 3 13 -2 27 -15
38 -19 112 -8 150 12 45 57 80 135 104 72 22 97 25 88 10 -10 -17 23 -54 67
-75 49 -24 76 -58 88 -108 6 -28 5 -37 -5 -37 -8 0 -17 -4 -20 -10 -11 -18 14
-10 39 13 13 12 41 34 60 50 24 18 37 39 42 62 7 39 -5 36 167 37 42 0 79 4
82 8 8 13 -34 58 -58 63 -12 2 28 5 89 6 102 1 120 4 220 40 222 79 614 239
858 350 33 16 84 38 111 51 28 12 75 34 105 47 66 31 286 119 355 143 28 9 70
24 95 33 209 72 630 187 688 187 40 0 88 23 101 49 14 25 51 17 88 -20 l30
-28 164 64 c186 72 391 138 589 190 74 19 142 37 150 39 8 2 49 16 90 31 41
15 80 28 85 29 38 8 263 127 346 182 191 127 250 149 479 179 53 7 237 53 259
64 9 5 54 11 101 14 47 3 99 8 115 11 189 38 311 92 462 203 153 112 347 217
515 278 l77 27 3 101 3 100 42 1 c25 1 50 9 65 21 69 58 93 86 123 145 18 36
42 74 54 84 27 25 27 32 -4 40 -30 8 -53 55 -34 67 7 4 22 5 35 3 24 -4 41 10
24 21 -12 7 -70 128 -91 189 -20 56 -76 115 -152 160 l-66 38 20 36 c23 44 24
61 4 89 -8 12 -17 38 -20 60 -9 59 -9 59 -93 101 -105 52 -213 112 -232 128
-8 7 -17 12 -20 11 -3 -1 -56 30 -118 68 -121 75 -166 102 -222 135 -19 11
-44 26 -55 33 -57 36 -108 64 -266 145 -96 48 -203 101 -239 116 -36 16 -78
34 -95 41 -159 68 -475 159 -640 184 -38 6 -86 13 -105 16 -31 5 -79 7 -323
18 -26 2 -49 2 -50 1z m808 -1080 c-60 -45 -466 -289 -652 -392 -47 -26 -104
-58 -127 -71 -103 -59 -661 -336 -841 -418 -216 -98 -501 -223 -508 -223 -2 0
-35 -14 -73 -31 -38 -17 -71 -31 -74 -31 -3 0 -16 -6 -30 -13 -24 -13 -40 -20
-140 -63 -25 -11 -65 -29 -90 -40 -25 -11 -144 -65 -265 -120 -121 -55 -254
-116 -295 -135 -41 -19 -109 -51 -150 -70 -254 -118 -446 -210 -595 -284 -97
-48 -144 -66 -185 -70 -30 -3 -61 -10 -67 -15 -7 -6 -13 -32 -13 -57 l0 -47
-52 -13 c-135 -34 -345 -115 -448 -174 -145 -83 -322 -155 -420 -171 -19 -3
-46 -8 -60 -11 -14 -3 -65 -8 -115 -11 -49 -3 -92 -7 -94 -9 -2 -2 -3 -24 -4
-49 0 -34 -5 -46 -16 -47 -56 -4 -78 -11 -121 -39 -47 -30 -138 -53 -159 -41
-15 10 11 55 34 59 43 8 39 23 -5 21 -99 -3 -132 -30 -116 -93 12 -49 -69 -99
-141 -88 -27 4 -38 37 -29 87 10 53 60 90 321 238 l79 46 -73 -6 -74 -6 23 32
c40 57 159 169 239 225 92 65 174 144 225 219 35 50 40 54 72 51 31 -3 34 -1
28 20 -5 20 1 27 38 47 55 31 59 56 18 132 -35 66 -35 66 -12 65 93 -3 200 34
228 79 9 15 30 48 47 73 16 24 26 46 21 47 -44 15 -40 23 77 144 35 37 111 57
221 58 l48 1 -3 90 c-2 82 0 90 18 93 l20 3 -20 8 c-73 27 -82 45 -46 96 32
44 80 34 151 -32 50 -46 107 -87 113 -81 5 5 177 7 204 2 4 -1 13 0 18 1 22 4
96 2 102 -3 5 -5 50 9 108 33 11 5 76 32 145 60 68 29 181 79 250 112 171 82
202 96 300 129 121 42 331 88 418 92 6 0 12 6 12 14 0 16 5 16 30 3 43 -23 96
-13 285 57 105 39 233 84 285 101 100 33 323 100 353 108 9 2 25 6 35 9 163
44 332 88 352 91 13 3 61 14 106 24 45 11 97 22 115 25 18 3 35 7 38 9 3 2 24
7 46 10 22 4 56 11 76 16 20 6 49 12 65 14 26 3 99 16 174 31 26 5 66 12 113
19 15 3 35 7 45 10 9 2 39 7 65 11 26 3 71 10 98 15 28 6 55 7 60 4 5 -3 9 -2
9 3 0 4 23 9 51 11 27 2 60 7 72 11 12 4 35 8 52 9 29 1 29 0 10 -14z m-4987
-151 c6 -21 32 -63 58 -93 54 -64 80 -117 89 -180 3 -25 8 -54 9 -65 2 -16 9
-19 37 -16 46 4 65 16 85 50 17 29 59 56 73 47 8 -6 6 -70 -4 -111 -5 -16 -23
-48 -42 -69 -39 -46 -43 -65 -9 -39 28 22 56 68 56 94 0 10 5 20 10 20 57 6
117 -8 156 -37 19 -15 51 -27 83 -31 28 -3 51 -9 51 -13 0 -34 -158 -196 -337
-346 -213 -179 -313 -295 -313 -366 0 -17 -3 -19 -9 -9 -6 10 -15 4 -37 -25
-16 -21 -36 -48 -46 -59 -9 -11 -56 -72 -105 -135 -49 -63 -152 -196 -228
-295 -200 -258 -324 -402 -506 -587 -125 -126 -145 -152 -194 -243 -125 -230
-245 -343 -402 -375 -86 -18 -173 -20 -173 -4 0 15 26 31 62 38 41 7 80 31
133 84 81 79 82 80 38 80 -60 -1 -96 11 -120 37 l-21 24 -12 -30 c-7 -16 -30
-54 -51 -84 -86 -123 -102 -183 -65 -240 23 -35 21 -37 -20 -20 -50 21 -76 19
-110 -7 -15 -13 -44 -23 -63 -24 -76 -3 -241 -76 -342 -151 -120 -88 -190
-132 -247 -153 -66 -25 -173 -50 -217 -50 l-30 0 30 16 c38 19 92 71 160 154
58 71 125 167 125 180 0 4 -14 13 -30 19 -30 10 -31 11 -14 36 22 33 32 32 42
-7 l8 -31 36 44 c29 36 83 130 85 149 3 24 26 88 36 100 6 9 27 25 46 35 26
15 35 28 37 54 6 54 52 109 174 209 257 209 315 275 322 371 2 28 21 53 118
150 128 129 208 228 295 371 98 159 164 236 260 304 61 44 170 91 179 78 6
-11 -31 -82 -58 -112 -13 -14 -30 -38 -39 -55 -16 -32 -29 -115 -18 -115 4 0
45 48 92 107 46 60 125 149 175 199 76 77 89 95 83 113 -11 27 -48 28 -91 1
-18 -11 -35 -20 -38 -20 -3 0 -6 25 -6 57 -2 72 -19 88 -72 66 l-36 -15 16 24
c8 12 35 34 61 48 25 14 64 40 87 59 47 37 60 37 30 -2 -11 -14 -17 -32 -14
-40 6 -16 52 -32 63 -22 3 4 6 36 6 71 l0 64 65 72 c36 39 74 82 86 94 11 13
29 35 40 50 10 14 27 35 37 47 10 12 39 56 65 97 73 119 147 233 170 260 46
54 127 139 133 140 3 0 11 -17 17 -37z m-829 -2345 c6 -13 10 -33 8 -46 -4
-24 -59 -78 -89 -88 -10 -3 -18 -8 -18 -12 -1 -4 -12 -20 -25 -36 l-24 -30 10
45 c8 33 22 56 60 91 33 32 49 56 49 73 0 31 13 32 29 3z m1790 -385 c-68 -79
-134 -115 -268 -149 -118 -30 -192 -53 -209 -67 -7 -5 -15 -7 -18 -4 -6 6 153
85 184 92 43 9 230 99 291 141 51 34 58 30 20 -13z m-689 -303 c0 -24 -53 -37
-180 -44 l-85 -5 75 19 c61 17 124 30 183 39 4 0 7 -3 7 -9z m-4175 -1610 c-3
-5 -18 -10 -33 -9 l-27 1 25 8 c35 11 42 11 35 0z m-1695 -3905 c0 -23 -28
-73 -46 -83 -29 -16 -22 -70 19 -149 28 -56 29 -54 -18 -53 -16 0 -80 -33 -91
-48 -8 -9 -31 -51 -53 -92 -69 -130 -127 -194 -196 -214 -18 -5 -20 -2 -17 44
2 29 0 50 -6 50 -22 0 -52 -37 -53 -65 -4 -83 4 -100 35 -70 21 22 26 19 17
-12 -15 -52 -53 -133 -63 -133 -5 0 -14 14 -19 30 -6 17 -16 30 -22 30 -6 0
-7 -3 -4 -6 3 -4 0 -16 -8 -27 -17 -24 -4 -47 26 -47 23 0 23 2 0 -46 -45 -93
-70 -156 -76 -191 -4 -21 -8 -45 -9 -52 -4 -20 -18 -23 -51 -11 -23 9 -26 14
-20 38 6 27 6 27 -31 -10 -35 -34 -36 -38 -25 -65 45 -110 3 -187 -189 -342
-124 -99 -188 -159 -195 -182 -4 -11 -10 -19 -15 -19 -11 0 19 90 55 160 37
74 138 223 211 313 64 79 178 295 232 442 18 48 35 80 44 79 7 -1 21 -3 31 -5
16 -3 19 3 21 42 1 33 10 59 31 89 49 69 66 110 78 177 l10 63 77 0 77 0 7 58
c8 68 15 111 30 179 7 32 32 76 54 96 44 40 152 62 152 32z m-679 -295 c26
-15 24 -53 -6 -119 -14 -29 -28 -71 -31 -92 -6 -34 -9 -39 -28 -33 -36 11 -78
38 -94 61 -14 22 -12 25 38 75 29 29 59 67 67 85 14 35 23 39 54 23z m223
-150 c-7 -56 -41 -147 -64 -170 -3 -3 -18 -23 -35 -45 -16 -22 -52 -67 -80
-100 -62 -74 -92 -113 -151 -190 -58 -75 -60 -78 -40 -35 10 19 25 51 34 70
36 75 166 305 174 308 4 2 8 8 8 12 0 9 48 85 109 174 30 43 35 47 42 30 4
-11 5 -35 3 -54z"/>
<path d="M18870 12838 c-12 -22 -12 -22 6 -6 10 10 15 20 12 24 -4 3 -12 -5
-18 -18z"/>
<path d="M18186 11935 c-9 -14 -35 -39 -58 -55 -34 -25 -37 -30 -20 -30 12 0
22 4 22 9 0 5 9 12 19 16 11 3 29 24 40 45 23 45 22 53 -3 15z"/>
<path d="M17810 12391 c-19 -11 -55 -37 -80 -59 -53 -46 -93 -68 -137 -75 -36
-6 -44 6 -39 61 2 25 -2 32 -15 32 -29 0 -37 -51 -25 -149 4 -25 -1 -39 -18
-56 -13 -13 -26 -42 -30 -65 -15 -94 -102 -229 -223 -342 -53 -51 -104 -88
-119 -88 -6 0 -18 -10 -27 -22 -17 -28 -117 -127 -147 -148 -20 -14 -14 -15
69 -14 50 0 92 2 93 5 2 2 12 21 23 43 27 54 121 144 218 210 127 86 185 145
200 206 4 14 20 39 36 56 41 44 76 115 106 216 29 98 74 155 148 189 26 11 34
18 22 18 -11 0 -36 -8 -55 -18z"/>
<path d="M16150 9740 c-75 -41 -128 -101 -177 -201 -48 -99 -86 -146 -168
-207 l-60 -45 49 7 c57 7 122 42 166 89 17 17 58 77 92 132 34 55 86 135 115
178 29 42 50 77 46 77 -5 0 -33 -14 -63 -30z"/>
<path d="M14728 8587 c-24 -19 -55 -83 -72 -151 -9 -32 -17 -60 -18 -61 -156
-93 -214 -158 -313 -350 -73 -142 -125 -232 -163 -282 -22 -29 -30 -33 -72
-33 l-49 0 1 -91 c1 -80 -1 -93 -18 -102 -10 -6 -46 -38 -79 -72 -63 -64 -80
-93 -265 -440 -126 -237 -229 -359 -368 -436 -60 -33 -65 -40 -74 -106 0 -5
-11 -37 -23 -73 -31 -90 -79 -188 -142 -290 -74 -121 -125 -261 -139 -385 l-6
-59 24 29 c39 47 183 265 214 324 15 30 40 90 56 135 25 71 28 75 24 36 -3
-25 -8 -56 -10 -70 -12 -68 -10 -90 9 -90 8 0 14 3 13 8 -3 16 15 82 23 82 5
0 9 7 9 15 0 9 29 44 64 80 75 74 72 86 -18 84 -38 -1 -62 3 -72 13 -12 12 -8
19 33 50 27 20 59 44 72 54 53 41 240 232 268 274 66 98 130 245 135 314 2 16
28 52 70 97 38 39 71 83 75 96 3 14 44 91 91 172 46 80 93 162 104 181 11 19
25 42 32 50 7 8 18 26 24 40 7 14 21 39 32 55 11 17 23 37 27 45 4 8 27 49 51
89 24 41 48 84 53 95 5 12 19 39 32 61 22 38 27 40 73 41 126 3 124 2 130 95
6 97 38 161 103 211 59 44 91 117 94 211 2 62 -6 75 -35 54z"/>
<path d="M12105 8546 c-14 -10 -31 -46 -22 -46 1 0 28 11 60 24 50 20 55 24
35 30 -35 9 -52 7 -73 -8z"/>
<path d="M14881 8268 c-7 -20 -55 -100 -107 -179 -122 -184 -129 -198 -54
-119 179 192 223 265 186 315 -12 17 -14 16 -25 -17z"/>
<path d="M14505 7703 c-65 -90 -125 -172 -133 -181 -44 -56 -236 -311 -250
-332 -9 -14 -53 -73 -97 -130 -43 -58 -83 -109 -87 -115 -4 -5 -20 -26 -36
-45 -171 -211 -369 -524 -524 -830 -49 -97 -54 -121 -21 -115 10 2 27 4 39 4
17 1 42 32 49 61 2 8 105 212 129 255 12 22 34 60 48 85 69 123 292 461 318
480 6 5 170 215 203 261 9 13 38 53 63 88 87 121 214 311 214 321 0 6 5 10 10
10 6 0 10 5 10 10 0 6 15 34 33 63 51 80 159 268 155 271 -2 2 -57 -71 -123
-161z"/>
<path d="M8750 7250 c-9 -6 -10 -10 -3 -10 6 0 15 5 18 10 8 12 4 12 -15 0z"/>
<path d="M8700 7219 c-22 -18 -22 -19 -3 -10 12 6 25 16 28 21 9 15 3 12 -25
-11z"/>
<path d="M8638 7184 c-38 -20 -36 -28 2 -9 17 9 30 18 30 20 0 7 -1 6 -32 -11z"/>
<path d="M13259 5951 c-4 -23 -5 -131 -2 -131 4 0 63 125 63 134 0 7 -60 4
-61 -3z"/>
<path d="M13247 5788 c-37 -94 -46 -118 -42 -118 8 0 46 81 51 106 5 26 -1 32
-9 12z"/>
<path d="M12689 5752 c-4 -47 -12 -69 -34 -100 -24 -33 -22 -32 19 10 47 48
58 81 31 92 -8 3 -15 2 -16 -2z"/>
</g>
</svg>
